<svg width="45" height="45" viewBox="0 0 45 45" fill="none" xmlns="http://www.w3.org/2000/svg">
<g clip-path="url(#clip0_108_175)">
<path d="M44.2969 22.5C44.2969 34.5381 34.5381 44.2969 22.5 44.2969C10.4619 44.2969 0.703125 34.5381 0.703125 22.5C0.703125 10.4619 10.4619 0.703125 22.5 0.703125C34.5381 0.703125 44.2969 10.4619 44.2969 22.5ZM19.9788 34.0413L36.1506 17.8694C36.6998 17.3203 36.6998 16.4298 36.1506 15.8807L34.1619 13.892C33.6128 13.3428 32.7224 13.3428 32.1732 13.892L18.9844 27.0807L12.8268 20.9232C12.2777 20.374 11.3873 20.374 10.8381 20.9232L8.84935 22.9119C8.30021 23.461 8.30021 24.3514 8.84935 24.9006L17.99 34.0412C18.5392 34.5904 19.4295 34.5904 19.9788 34.0413Z" fill="#0094FF"/>
</g>
<defs>
<clipPath id="clip0_108_175">
<rect width="45" height="45" fill="white"/>
</clipPath>
</defs>
</svg>
