<svg viewBox="0 0 42 42" fill="#333333" xmlns="http://www.w3.org/2000/svg">
      <path id="Mask" fillRule="evenodd" clipRule="evenodd" d="M19.9475 3.9777C24.5162 -0.601496 31.8886 -1.42856 36.9807 2.5539C43.0801 7.32363 43.48 16.2119 38.1805 21.524L35.201 24.5077C34.3781 25.3326 33.0464 25.3326 32.2236 24.5077C31.4007 23.6848 31.4007 22.3468 32.2236 21.524L35.201 18.5382C38.6663 15.0687 38.4778 9.3002 34.6315 6.0799C31.2248 3.22602 26.1117 3.77041 22.9731 6.91534L20.3076 9.58496C19.4868 10.4099 18.151 10.4099 17.3302 9.58496C16.5073 8.76209 16.4989 7.43251 17.7008 6.22856L19.9475 3.9777ZM23.6447 15.2704L15.2694 23.6457C14.4507 24.4644 14.4507 25.7877 15.2694 26.6064C15.6777 27.0147 16.2137 27.2199 16.7498 27.2199C17.2858 27.2199 17.8218 27.0147 18.2301 26.6064L26.6054 18.2311C27.4241 17.4124 27.4241 16.0891 26.6054 15.2704C25.7867 14.4517 24.4634 14.4517 23.6447 15.2704ZM21.5244 32.2381L18.8569 34.8993C15.714 38.0338 10.5904 38.574 7.18169 35.7327C3.33114 32.5249 3.1406 26.7753 6.61007 23.3142L9.59377 20.341C10.4166 19.5202 10.4166 18.1885 9.59377 17.3656C8.7709 16.5469 7.43504 16.5469 6.61007 17.3656L3.94044 20.0311C-0.607345 24.5663 -1.40509 31.8612 2.52711 36.9366C7.28219 43.0778 16.2019 43.4924 21.5244 38.1866L24.5081 35.2134C25.331 34.3905 25.331 33.0609 24.5081 32.2381C23.6831 31.4152 22.3494 31.4152 21.5244 32.2381Z"/>
    </svg>