<svg viewBox="0 0 36 28" xmlns="http://www.w3.org/2000/svg">
      <g id="download 1" clipPath="url(#clip0_306_96)">
        <path id="Vector (Stroke)" fillRule="evenodd" clipRule="evenodd" d="M18 0.897461C18.9922 0.897461 19.7964 1.70174 19.7964 2.69387V17.0651C19.7964 18.0573 18.9922 18.8616 18 18.8616C17.0079 18.8616 16.2036 18.0573 16.2036 17.0651V2.69387C16.2036 1.70174 17.0079 0.897461 18 0.897461Z" fill="#333333"/>
        <path id="Vector (Stroke)_2" fillRule="evenodd" clipRule="evenodd" d="M11.3405 10.4051C12.0421 9.70352 13.1795 9.70352 13.8811 10.4051L18 14.524L22.119 10.4051C22.8205 9.70352 23.958 9.70352 24.6595 10.4051C25.361 11.1066 25.361 12.244 24.6595 12.9456L19.4266 18.1785C18.6388 18.9663 17.3613 18.9663 16.5735 18.1785L11.3405 12.9456C10.639 12.244 10.639 11.1066 11.3405 10.4051Z" fill="#333333"/>
        <path id="Vector (Stroke)_3" fillRule="evenodd" clipRule="evenodd" d="M1.83236 13.4717C2.82449 13.4717 3.62877 14.276 3.62877 15.2681V22.4538C3.62877 23.4459 4.433 24.2501 5.42519 24.2501H30.5749C31.5671 24.2501 32.3713 23.4459 32.3713 22.4538V15.2681C32.3713 14.276 33.1756 13.4717 34.1677 13.4717C35.1598 13.4717 35.9641 14.276 35.9641 15.2681V22.4538C35.9641 25.4302 33.5513 27.8429 30.5749 27.8429H5.42519C2.44883 27.8429 0.0359497 25.4302 0.0359497 22.4538V15.2681C0.0359497 14.276 0.840229 13.4717 1.83236 13.4717Z" fill="#333333"/>
      </g>
      <defs>
        <clipPath id="clip0_306_96">
          <rect width="36" height="27" transform="translate(0 0.861328)" />
        </clipPath>
      </defs>
    </svg>