<svg width="51" height="51" viewBox="0 0 51 51" fill="none" xmlns="http://www.w3.org/2000/svg">
<path fill-rule="evenodd" clip-rule="evenodd" d="M25.5 12.5195C18.4663 12.5195 12.75 18.2358 12.75 25.2695H19.125L10.625 33.7695L2.125 25.2695H8.5C8.5 15.877 16.1075 8.26953 25.5 8.26953C28.8363 8.26953 31.9388 9.24703 34.5525 10.9045L31.45 14.007C29.6863 13.0508 27.6463 12.5195 25.5 12.5195ZM31.875 25.2695L40.375 16.7695L48.875 25.2695H42.5C42.5 34.662 34.8925 42.2695 25.5 42.2695C22.1638 42.2695 19.0612 41.292 16.4475 39.6345L19.55 36.532C21.3138 37.4883 23.3538 38.0195 25.5 38.0195C32.5338 38.0195 38.25 32.3033 38.25 25.2695H31.875Z" fill="#FF6767"/>
</svg>
