<svg width="42" height="42" viewBox="0 -4 50 50" fill="none" xmlns="http://www.w3.org/2000/svg">
<g clip-path="url(#clip0_108_152)">
<path d="M21 23.625C27.5215 23.625 32.8125 18.334 32.8125 11.8125C32.8125 5.29102 27.5215 0 21 0C14.4785 0 9.1875 5.29102 9.1875 11.8125C9.1875 18.334 14.4785 23.625 21 23.625ZM31.5 26.25H26.9801C25.159 27.0867 23.1328 27.5625 21 27.5625C18.8672 27.5625 16.8492 27.0867 15.0199 26.25H10.5C4.70039 26.25 0 30.9504 0 36.75V38.0625C0 40.2363 1.76367 42 3.9375 42H38.0625C40.2363 42 42 40.2363 42 38.0625V36.75C42 30.9504 37.2996 26.25 31.5 26.25Z" fill="#30D0D0"/>
</g>
<defs>
<clipPath id="clip0_108_152">
<rect width="42" height="42" fill="white"/>
</clipPath>
</defs>
</svg>
